<?xml version="1.0" encoding="UTF-8" standalone="no"?>
<!DOCTYPE svg PUBLIC "-//W3C//DTD SVG 1.1//EN"
 "http://www.w3.org/Graphics/SVG/1.1/DTD/svg11.dtd">
<!-- Generated by graphviz version 2.43.0 (0)
 -->
<!-- Title: FST Pages: 1 -->
<svg width="136pt" height="125pt"
 viewBox="0.00 0.00 136.00 125.39" xmlns="http://www.w3.org/2000/svg" xmlns:xlink="http://www.w3.org/1999/xlink">
<g id="graph0" class="graph" transform="scale(1 1) rotate(0) translate(4 121.39)">
<title>FST</title>
<polygon fill="white" stroke="transparent" points="-4,4 -4,-121.39 132,-121.39 132,4 -4,4"/>
<!-- 0 -->
<g id="node1" class="node">
<title>0</title>
<ellipse fill="none" stroke="black" stroke-width="2" cx="18" cy="-46.39" rx="18" ry="18"/>
<text text-anchor="middle" x="18" y="-42.69" font-family="Times,serif" font-size="14.00">0</text>
</g>
<!-- 1 -->
<g id="node2" class="node">
<title>1</title>
<ellipse fill="none" stroke="black" cx="106" cy="-46.39" rx="18" ry="18"/>
<ellipse fill="none" stroke="black" cx="106" cy="-46.39" rx="22" ry="22"/>
<text text-anchor="middle" x="106" y="-42.69" font-family="Times,serif" font-size="14.00">1</text>
</g>
<!-- 0&#45;&gt;1 -->
<g id="edge1" class="edge">
<title>0&#45;&gt;1</title>
<path fill="none" stroke="black" d="M23.99,-63.36C28.71,-76.05 37.18,-92.51 51,-100.39 67.09,-109.55 81.69,-92.65 91.65,-75.39"/>
<polygon fill="black" stroke="black" points="94.79,-76.94 96.41,-66.47 88.61,-73.64 94.79,-76.94"/>
<text text-anchor="middle" x="60" y="-106.19" font-family="Times,serif" font-size="14.00">4:5</text>
</g>
<!-- 0&#45;&gt;1 -->
<g id="edge2" class="edge">
<title>0&#45;&gt;1</title>
<path fill="none" stroke="black" d="M33.75,-55.55C39,-58.31 45.08,-60.99 51,-62.39 59.39,-64.37 68.4,-63.08 76.62,-60.55"/>
<polygon fill="black" stroke="black" points="78.01,-63.77 86.15,-56.98 75.55,-57.22 78.01,-63.77"/>
<text text-anchor="middle" x="60" y="-66.19" font-family="Times,serif" font-size="14.00">3:6</text>
</g>
<!-- 0&#45;&gt;1 -->
<g id="edge3" class="edge">
<title>0&#45;&gt;1</title>
<path fill="none" stroke="black" d="M35.92,-44.5C40.78,-44.04 46.1,-43.61 51,-43.39 58.39,-43.04 66.36,-43.19 73.84,-43.57"/>
<polygon fill="black" stroke="black" points="73.77,-47.07 83.98,-44.22 74.22,-40.08 73.77,-47.07"/>
<text text-anchor="middle" x="60" y="-47.19" font-family="Times,serif" font-size="14.00">2:7</text>
</g>
<!-- 0&#45;&gt;1 -->
<g id="edge4" class="edge">
<title>0&#45;&gt;1</title>
<path fill="none" stroke="black" d="M31.67,-34.48C37.17,-30.1 43.97,-25.65 51,-23.39 60.5,-20.32 70.64,-22.97 79.54,-27.41"/>
<polygon fill="black" stroke="black" points="77.88,-30.5 88.28,-32.52 81.41,-24.45 77.88,-30.5"/>
<text text-anchor="middle" x="60" y="-27.19" font-family="Times,serif" font-size="14.00">1:8</text>
</g>
<!-- 0&#45;&gt;1 -->
<g id="edge5" class="edge">
<title>0&#45;&gt;1</title>
<path fill="none" stroke="black" d="M26.19,-29.84C31.48,-19.91 39.72,-8.13 51,-2.39 64.79,4.64 78.29,-6.36 88.34,-19.11"/>
<polygon fill="black" stroke="black" points="85.74,-21.49 94.41,-27.57 91.42,-17.41 85.74,-21.49"/>
<text text-anchor="middle" x="60" y="-6.19" font-family="Times,serif" font-size="14.00">5:9</text>
</g>
</g>
</svg>
