<?xml version="1.0" encoding="UTF-8" standalone="no"?>
<!DOCTYPE svg PUBLIC "-//W3C//DTD SVG 1.1//EN"
 "http://www.w3.org/Graphics/SVG/1.1/DTD/svg11.dtd">
<!-- Generated by graphviz version 2.43.0 (0)
 -->
<!-- Title: FST Pages: 1 -->
<svg width="125pt" height="124pt"
 viewBox="0.00 0.00 125.00 123.91" xmlns="http://www.w3.org/2000/svg" xmlns:xlink="http://www.w3.org/1999/xlink">
<g id="graph0" class="graph" transform="scale(1 1) rotate(0) translate(4 119.91)">
<title>FST</title>
<polygon fill="white" stroke="transparent" points="-4,4 -4,-119.91 121,-119.91 121,4 -4,4"/>
<!-- 0 -->
<g id="node1" class="node">
<title>0</title>
<ellipse fill="none" stroke="black" stroke-width="2" cx="18" cy="-44.91" rx="18" ry="18"/>
<text text-anchor="middle" x="18" y="-41.21" font-family="Times,serif" font-size="14.00">0</text>
</g>
<!-- 1 -->
<g id="node2" class="node">
<title>1</title>
<ellipse fill="none" stroke="black" cx="95" cy="-44.91" rx="18" ry="18"/>
<ellipse fill="none" stroke="black" cx="95" cy="-44.91" rx="22" ry="22"/>
<text text-anchor="middle" x="95" y="-41.21" font-family="Times,serif" font-size="14.00">1</text>
</g>
<!-- 0&#45;&gt;1 -->
<g id="edge1" class="edge">
<title>0&#45;&gt;1</title>
<path fill="none" stroke="black" d="M23.99,-61.89C28.71,-74.58 37.18,-91.03 51,-98.91 65.01,-106.89 76.18,-91.56 83.61,-75.22"/>
<polygon fill="black" stroke="black" points="86.98,-76.22 87.56,-65.65 80.51,-73.56 86.98,-76.22"/>
<text text-anchor="middle" x="54.5" y="-104.71" font-family="Times,serif" font-size="14.00">1</text>
</g>
<!-- 0&#45;&gt;1 -->
<g id="edge2" class="edge">
<title>0&#45;&gt;1</title>
<path fill="none" stroke="black" d="M33.75,-54.07C39,-56.84 45.08,-59.51 51,-60.91 56.2,-62.14 61.62,-61.62 66.79,-60.2"/>
<polygon fill="black" stroke="black" points="68.23,-63.4 76.32,-56.55 65.73,-56.86 68.23,-63.4"/>
<text text-anchor="middle" x="54.5" y="-64.71" font-family="Times,serif" font-size="14.00">2</text>
</g>
<!-- 0&#45;&gt;1 -->
<g id="edge3" class="edge">
<title>0&#45;&gt;1</title>
<path fill="none" stroke="black" d="M35.92,-43.03C40.78,-42.56 46.1,-42.14 51,-41.91 54.81,-41.73 58.81,-41.74 62.77,-41.88"/>
<polygon fill="black" stroke="black" points="62.83,-45.38 73.02,-42.46 63.23,-38.4 62.83,-45.38"/>
<text text-anchor="middle" x="54.5" y="-45.71" font-family="Times,serif" font-size="14.00">3</text>
</g>
<!-- 0&#45;&gt;1 -->
<g id="edge4" class="edge">
<title>0&#45;&gt;1</title>
<path fill="none" stroke="black" d="M31.67,-33.01C37.17,-28.62 43.97,-24.17 51,-21.91 57.35,-19.87 63.86,-21.26 69.83,-24.16"/>
<polygon fill="black" stroke="black" points="68.34,-27.36 78.67,-29.7 72.05,-21.42 68.34,-27.36"/>
<text text-anchor="middle" x="54.5" y="-25.71" font-family="Times,serif" font-size="14.00">4</text>
</g>
<!-- 0&#45;&gt;1 -->
<g id="edge5" class="edge">
<title>0&#45;&gt;1</title>
<path fill="none" stroke="black" d="M26.28,-28.73C31.61,-19.03 39.86,-7.51 51,-1.91 62.2,3.72 72.26,-5.12 79.83,-16.23"/>
<polygon fill="black" stroke="black" points="76.94,-18.21 85.11,-24.95 82.93,-14.58 76.94,-18.21"/>
<text text-anchor="middle" x="54.5" y="-5.71" font-family="Times,serif" font-size="14.00">5</text>
</g>
</g>
</svg>
